<?xml version="1.0" encoding="UTF-8"?>
<svg id="Layer_2" data-name="Layer 2" xmlns="http://www.w3.org/2000/svg" viewBox="0 0 878.54 133.03">
  <defs>
    <style>
      .cls-1 {
        fill: #fff;
      }
    </style>
  </defs>
  <g id="Layer_1-2" data-name="Layer 1">
    <g>
      <g>
        <path class="cls-1" d="M303.52,4.47l-52.42,74.15c-.53.75-1.39,1.2-2.32,1.2h-91.36c-2.29,0-3.64-2.58-2.32-4.46L207.02,1.21c.53-.76,1.4-1.21,2.32-1.21h91.86c2.3,0,3.64,2.59,2.32,4.47Z"/>
        <path class="cls-1" d="M183.01,0c2.29,0,3.64,2.58,2.32,4.46l-54.45,77.76-16.17,23.11-18.55,26.49c-.53.76-1.4,1.21-2.32,1.21H2.84c-2.29,0-3.64-2.58-2.32-4.46L89.69,1.21c.53-.76,1.4-1.21,2.32-1.21h91Z"/>
      </g>
      <g>
        <polygon class="cls-1" points="720.99 22.13 716.93 37.3 706.58 75.96 702.47 91.26 697.22 110.89 678.43 110.89 672.6 91.26 670.34 83.61 668.06 75.96 661.53 53.93 657.92 53.93 652.02 75.96 649.97 83.61 647.92 91.26 642.66 110.89 624.47 110.89 629.73 91.26 633.83 75.96 644.18 37.3 653.71 37.3 648.27 22.13 670.29 22.13 674.82 37.3 686.34 75.96 687.42 79.58 688.39 75.96 698.75 37.3 702.81 22.13 720.99 22.13"/>
        <polygon class="cls-1" points="750.91 37.3 796.19 37.3 800.26 22.13 736.19 22.13 736.19 22.15 741.63 37.3 732.13 37.3 727.6 54.18 732.13 37.3 721.76 75.96 719.71 83.61 717.67 91.26 719.23 85.44 717.67 91.26 717.67 91.26 712.41 110.89 776.48 110.89 780.77 94.87 735.48 94.87 736.45 91.26 738.5 83.62 740.55 75.97 741.46 72.59 782.53 72.59 786.66 57.18 745.59 57.18 750.91 37.3"/>
        <path class="cls-1" d="M564.94,37.3l.48-1.8-9.78-13.37h-56l5.43,15.17h-9.62l-3.95,14.79-6.4,23.88-4.1,15.3-5.26,19.62h18.79l5.26-19.62,2.05-7.65,1.12-4.15h21.2l.57,4.15,1.06,7.65,2.7,19.62h19.87l-3.08-19.62-1.2-7.65-1.01-6.45,1.53-1.2,12.65-9.88,3.74-14,3.96-14.79ZM542.51,52.08l-1.96,7.51-6.09,4.7h-27.45l3.27-12.21,3.95-14.79h27.46l3.44,4.71-2.62,10.07Z"/>
        <path class="cls-1" d="M870.35,66.09l8.2-30.58-9.79-13.37h-56l5.45,15.17h-9.63l-10.35,38.67-2.05,7.65-2.04,7.65h-.01l-5.25,19.62h18.77l5.27-19.62,2.05-7.65,1.11-4.15h21.2l.57,4.15,1.06,7.65,2.71,19.62h19.88l-3.09-19.62-1.2-7.65-1-6.45,1.53-1.2,12.64-9.88ZM853.66,59.59l-6.07,4.7h-27.46l7.22-26.99h27.46l3.44,4.71-4.58,17.58Z"/>
        <path class="cls-1" d="M393.56,75.96l.51-.4,9.27-7.31,4.34-16.17,3.95-14.79.49-1.8-5.36-7.32-4.42-6.05h-54.69l5.46,15.17h-9.51l-3.96,14.79-6.4,23.88-2.05,7.65-2.04,7.65-5.26,19.62h18.78l5.26-19.62,2.05-7.65.52-1.99h35.9l7.16-5.66ZM354.57,66.45l3.86-14.37,3.95-14.79h26.01l3.56,4.71-2.69,10.07-2.59,9.67-6.09,4.7h-26.01Z"/>
        <path class="cls-1" d="M467.91,83.61l-.3-7.65-1-23.88-.61-14.79-.63-15.17h-29.5l-8.77,15.17-5.17,8.97-3.36,5.82-13.79,23.88-4.41,7.65-4.42,7.65-11.33,19.62h20l10.68-19.62,4.21-7.65,2.75,7.65h26.63l.28,19.62h19.88l-.82-19.62-.33-7.65ZM423.72,75.96l13.11-23.88,8.1-14.79h3.35l.14,14.79.23,23.88h-24.93Z"/>
        <polygon class="cls-1" points="602.92 37.3 636.98 37.3 641.05 22.13 572.77 22.13 568.7 37.3 593.39 37.3 589.43 52.08 587.34 59.88 583.03 75.97 580.98 83.62 578.94 91.26 578.93 91.26 573.67 110.89 592.46 110.89 597.72 91.26 599.76 83.62 599.77 83.61 599.77 83.61 600.69 80.17 601.82 75.97 608.22 52.09 608.22 52.08 602.92 37.31 602.92 37.3"/>
      </g>
    </g>
  </g>
</svg>